{"accessors" : [{"bufferView" : 0, "byteOffset" : 0, "componentType" : 5123, "count" : 648, "type" : "SCALAR", "max" : [647], "min" : [0]}, {"bufferView" : 1, "byteOffset" : 0, "componentType" : 5126, "count" : 648, "type" : "VEC3", "max" : [3.75, 3.75, 78.73138427734375], "min" : [-3.75, -3.75, 47.315853118896484], "name" : "POSITION"}, {"bufferView" : 1, "byteOffset" : 12, "componentType" : 5126, "count" : 648, "type" : "VEC3", "max" : [1.0000044107437134, 1.0000044107437134, 1.0000044107437134], "min" : [-1.0000044107437134, -1.0000044107437134, -1.0000044107437134], "name" : "NORMAL"}, {"bufferView" : 1, "byteOffset" : 24, "componentType" : 5126, "count" : 648, "type" : "VEC4", "max" : [1.0000044107437134, 1.0000044107437134, 0, 0], "min" : [-1.0000044107437134, -1.0000044107437134, 0, 0], "name" : "TANGENT"}, {"bufferView" : 1, "byteOffset" : 40, "componentType" : 5126, "count" : 648, "type" : "VEC2", "max" : [1.0833325386047363, -0.028263211250305176], "min" : [-4.172325134277344E-07, -0.9717367887496948], "name" : "TEXCOORD_0"}, {"bufferView" : 0, "byteOffset" : 1296, "componentType" : 5123, "count" : 720, "type" : "SCALAR", "max" : [719], "min" : [0]}, {"bufferView" : 2, "byteOffset" : 0, "componentType" : 5126, "count" : 720, "type" : "VEC3", "max" : [3.5, 3.5, 80], "min" : [-3.5, -3.5, 0], "name" : "POSITION"}, {"bufferView" : 2, "byteOffset" : 12, "componentType" : 5126, "count" : 720, "type" : "VEC3", "max" : [1.0000044107437134, 1.0000044107437134, 1.0000044107437134], "min" : [-1.0000044107437134, -1.0000044107437134, -1.0000044107437134], "name" : "NORMAL"}, {"bufferView" : 2, "byteOffset" : 24, "componentType" : 5126, "count" : 720, "type" : "VEC4", "max" : [1.0000044107437134, 1.0000044107437134, 0.007095495704561472, 0], "min" : [-1.0000044107437134, -1.0000044107437134, -0.0070954873226583, 0], "name" : "TANGENT"}, {"bufferView" : 2, "byteOffset" : 40, "componentType" : 5126, "count" : 720, "type" : "VEC2", "max" : [1.0782291889190674, -0.0004994869232177734], "min" : [-0.01733982563018799, -0.9995005130767822], "name" : "TEXCOORD_0"}], "asset" : {"generator" : "Aspose.3D 23.2", "version" : "2.0"}, "buffers" : [{"uri" : "data:application/octet-stream;base64,", "byteLength" : 68412}], "bufferViews" : [{"buffer" : 0, "byteOffset" : 0, "byteLength" : 2736, "target" : 34963}, {"buffer" : 0, "byteOffset" : 2740, "byteLength" : 31104, "byteStride" : 48, "target" : 34962}, {"buffer" : 0, "byteOffset" : 33848, "byteLength" : 34560, "byteStride" : 48, "target" : 34962}], "images" : [{"uri" : "data:image/x-targa;base64,"}, {"uri" : "data:image/x-targa;base64,"}], "materials" : [{"name" : "Material #58", "pbrMetallicRoughness" : {"baseColorFactor" : [0.5879999995231632, 0.5879999995231632, 0.5879999995231632, 1], "baseColorTexture" : {"index" : 0, "texCoord" : 0}, "metallicFactor" : 0, "roughnessFactor" : 0}, "emissiveFactor" : [0, 0, 0], "alphaMode" : "OPAQUE", "doubleSided" : false}, {"name" : "Material #46", "pbrMetallicRoughness" : {"baseColorFactor" : [0.5879999995231632, 0.5879999995231632, 0.5879999995231632, 1], "baseColorTexture" : {"index" : 1, "texCoord" : 0}, "metallicFactor" : 0, "roughnessFactor" : 0}, "emissiveFactor" : [0, 0, 0], "alphaMode" : "OPAQUE", "doubleSided" : false}], "meshes" : [{"primitives" : [{"attributes" : {"POSITION" : 1, "NORMAL" : 2, "TANGENT" : 3, "TEXCOORD_0" : 4}, "indices" : 0, "material" : 0, "mode" : 4}, {"attributes" : {"POSITION" : 6, "NORMAL" : 7, "TANGENT" : 8, "TEXCOORD_0" : 9}, "indices" : 5, "material" : 1, "mode" : 4}], "name" : ""}], "nodes" : [{"matrix" : [1, 0, 0, 0, 0, 6.123233995736766E-17, -1, 0, 0, 1, 6.123233995736766E-17, 0, 0, 0, 0, 1], "mesh" : 0, "name" : "FireTorch"}], "samplers" : [{"magFilter" : 9729, "minFilter" : 9729, "wrapS" : 10497, "wrapT" : 10497}, {"magFilter" : 9729, "minFilter" : 9729, "wrapS" : 10497, "wrapT" : 10497}], "scene" : 0, "scenes" : [{"nodes" : [0]}], "textures" : [{"sampler" : 0, "source" : 0, "name" : "Map #2"}, {"sampler" : 1, "source" : 1, "name" : "Map #1"}]}