{"accessors" : [{"bufferView" : 0, "byteOffset" : 0, "componentType" : 5123, "count" : 1254, "type" : "SCALAR", "max" : [1212], "min" : [0]}, {"bufferView" : 1, "byteOffset" : 0, "componentType" : 5126, "count" : 1213, "type" : "VEC3", "max" : [0.4611511826515198, 0.45584794878959656, 0.163661390542984], "min" : [-0.46332162618637085, -0.4686228334903717, -0.002740083262324333], "name" : "POSITION"}, {"bufferView" : 1, "byteOffset" : 12, "componentType" : 5126, "count" : 1213, "type" : "VEC2", "max" : [1, -0], "min" : [0, -1], "name" : "TEXCOORD_0"}], "asset" : {"generator" : "Aspose.3D 23.2", "version" : "2.0"}, "buffers" : [{"uri" : "data:application/octet-stream;base64,", "byteLength" : 27596}], "bufferViews" : [{"buffer" : 0, "byteOffset" : 0, "byteLength" : 2508, "target" : 34963}, {"buffer" : 0, "byteOffset" : 2512, "byteLength" : 25080, "byteStride" : 20, "target" : 34962}], "meshes" : [{"primitives" : [{"attributes" : {"POSITION" : 1, "TEXCOORD_0" : 2}, "indices" : 0, "mode" : 4}], "name" : "Labyrinth"}], "nodes" : [{"mesh" : 0, "name" : "Labyrinth"}], "scene" : 0, "scenes" : [{"nodes" : [0]}]}