{"accessors" : [{"bufferView" : 0, "byteOffset" : 0, "componentType" : 5123, "count" : 2046, "type" : "SCALAR", "max" : [2045], "min" : [0]}, {"bufferView" : 1, "byteOffset" : 0, "componentType" : 5126, "count" : 2046, "type" : "VEC3", "max" : [11.99234676361084, 88.0182113647461, 2.3106584548950195], "min" : [-11.99234676361084, 1.042138695716858, -2.3106846809387207], "name" : "POSITION"}, {"bufferView" : 1, "byteOffset" : 12, "componentType" : 5126, "count" : 2046, "type" : "VEC3", "max" : [1.0000042915344238, 0.9966826438903809, 1.0000042915344238], "min" : [-1.0000042915344238, -1.0000039339065552, -1.0000042915344238], "name" : "NORMAL"}, {"bufferView" : 1, "byteOffset" : 24, "componentType" : 5126, "count" : 2046, "type" : "VEC2", "max" : [0.9631946682929993, -0.02008182182908058], "min" : [0.020016303285956383, -0.9799999594688416], "name" : "TEXCOORD_0"}], "asset" : {"generator" : "Aspose.3D 23.2", "version" : "2.0"}, "buffers" : [{"uri" : "data:application/octet-stream;base64,", "byteLength" : 69572}], "bufferViews" : [{"buffer" : 0, "byteOffset" : 0, "byteLength" : 4092, "target" : 34963}, {"buffer" : 0, "byteOffset" : 4096, "byteLength" : 65472, "byteStride" : 32, "target" : 34962}], "materials" : [{"name" : "Material.001", "pbrMetallicRoughness" : {"baseColorFactor" : [0.800000011920929, 0.800000011920929, 0.800000011920929, 1], "metallicFactor" : 0, "roughnessFactor" : 0}, "emissiveFactor" : [0, 0, 0], "alphaMode" : "OPAQUE", "doubleSided" : false}], "meshes" : [{"primitives" : [{"attributes" : {"POSITION" : 1, "NORMAL" : 2, "TEXCOORD_0" : 3}, "indices" : 0, "material" : 0, "mode" : 4}], "name" : ""}], "nodes" : [{"mesh" : 0, "name" : "starting shord sword"}], "scene" : 0, "scenes" : [{"nodes" : [0]}]}